<svg xmlns="http://www.w3.org/2000/svg" viewBox="0 0 64 64" width="64" height="64" role="img" aria-label="dawmain">
  <title>dawmain</title>
  <defs>
    <linearGradient id="dawmainSky" x1="0" y1="0" x2="0" y2="1">
      <stop offset="0" stop-color="#0E1938"/>
      <stop offset=".5" stop-color="#241A49"/>
      <stop offset="1" stop-color="#512B4C"/>
    </linearGradient>
    <linearGradient id="dawmainSun" x1="0" y1="0" x2="0" y2="1">
      <stop offset="0" stop-color="#FFD75E"/>
      <stop offset="1" stop-color="#FF8F3C"/>
    </linearGradient>
    <radialGradient id="dawmainGlow" cx=".5" cy=".5" r=".5">
      <stop offset="0" stop-color="#FFA23F" stop-opacity=".45"/>
      <stop offset="1" stop-color="#FFA23F" stop-opacity="0"/>
    </radialGradient>
    <clipPath id="dawmainCounter">
      <path d="M21 19h12a13 13 0 0 1 0 26H21Z"/>
    </clipPath>
  </defs>
  <rect width="64" height="64" rx="14" fill="url(#dawmainSky)"/>
  <g clip-path="url(#dawmainCounter)">
    <circle cx="33.5" cy="45" r="19" fill="url(#dawmainGlow)"/>
    <circle cx="33.5" cy="45" r="11.5" fill="url(#dawmainSun)"/>
  </g>
  <path fill="#FFF8EE" fill-rule="evenodd" d="M17 11.5h16a20.5 20.5 0 0 1 0 41H17a3 3 0 0 1-3-3V14.5a3 3 0 0 1 3-3Z M21 19v26h12a13 13 0 0 0 0-26Z"/>
</svg>
